<?xml version="1.0" encoding="iso-8859-1"?>
<!-- Uploaded to: SVG Repo, www.svgrepo.com, Generator: SVG Repo Mixer Tools -->
<svg version="1.1" id="Layer_1" xmlns="http://www.w3.org/2000/svg" xmlns:xlink="http://www.w3.org/1999/xlink" 
	 viewBox="0 0 512 512" xml:space="preserve">
<polygon style="fill:#FFBA00;" points="87.507,494.871 104.634,511.998 512,104.632 494.873,87.505 283.802,283.8 "/>
<polygon style="fill:#FDE09C;" points="477.746,70.378 259.286,259.284 70.38,477.744 87.507,494.871 494.873,87.505 "/>
<polygon style="fill:#FFBA00;" points="35.19,442.554 70.38,477.744 477.746,70.378 442.556,35.188 224.096,224.094 "/>
<rect x="-66.773" y="196.395" transform="matrix(-0.7071 0.7071 -0.7071 -0.7071 534.2103 221.2797)" style="fill:#FDE09C;" width="576.099" height="49.766"/>
<polygon style="fill:#FF4F67;" points="241.433,270.985 346.882,346.88 391.272,327.345 288.172,224.245 "/>
<polygon style="fill:#FF6E7A;" points="224.247,288.171 327.347,391.271 346.882,346.88 256.21,256.208 "/>
<path style="fill:#FF0F4D;" d="M169.064,169.063l40.258,69.812l71.698,42.144c30.915-30.915,30.915-81.039,0-111.956
	C250.105,138.147,199.98,138.147,169.064,169.063z"/>
<path style="fill:#FF4F67;" d="M169.064,281.018c30.915,30.915,81.039,30.915,111.956,0L169.064,169.063
	C138.149,199.978,138.149,250.103,169.064,281.018z"/>
<path style="fill:#FF8E00;" d="M200.352,200.35l8.964,38.519l40.417,10.863c13.636-13.636,13.636-35.745,0-49.382
	C236.097,186.713,213.988,186.713,200.352,200.35z"/>
<path style="fill:#FFBA00;" d="M200.351,249.731c13.636,13.636,35.745,13.636,49.382,0l-49.382-49.382
	C186.715,213.986,186.715,236.095,200.351,249.731z"/>
</svg>